# xmcd CD database file
#
# Track frame offsets:
#	150
#	12594
#	25070
#	33828
#	43173
#	51621
#	62146
#	72753
#	85497
#	96131
#	106607
#	118574
#	131254
#	142604
#	156976
#	164608
#	174458
#	188377
#	198848
#	210124
#
# Disc length: 2947 seconds
#
# Revision: 0
# Processed by: cddbd v1.5.2PL0 Copyright (c) Steve Scherf et al.
# Submitted via: CDex 1.70beta2
#
DISCID=030b8114
DTITLE=Various Country - COUNTRY MUSIC'S BEST - DISC 2
DYEAR=1900
DGENRE=Country
TTITLE0=Jim Reeves - Drinking Tequila
TTITLE1=Bobby Helms - Fraulein
TTITLE2=Charley Pride - Another I Love You Kind Of Day
TTITLE3=Faron Young - A World So Full Of Love
TTITLE4=Johnny Cash - Country Boy
TTITLE5=Don Gibson - I'm Gonna Fool Everybody
TTITLE6=Boots Randolph - Greenback Dollar
TTITLE7=Wanda Jackson - The Window Up Above
TTITLE8=Hank Thompson - Wake Up Irene
TTITLE9=Wanda Jackson - It's Only Make Believe
TTITLE10=Johnny Cash - Home Of The Blues
TTITLE11=Carl Smith - Let Old Mother Nature Have Her Way
TTITLE12=Don Gibson - Give Myself A Party
TTITLE13=Marty Robbins - Have I Told You Lately
TTITLE14=Johnny Cash - Come In Stranger
TTITLE15=Eddy Arnold - Tom Dooley
TTITLE16=Patsy Cline - Church, A Courtroom And Then Goodbye
TTITLE17=Faron Young - Riverboat
TTITLE18=Charley Pride - Days Of Our Lives
TTITLE19=Webb Pierce - I'm Walking The Dog
EXTD=
EXTT0=
EXTT1=
EXTT2=
EXTT3=
EXTT4=
EXTT5=
EXTT6=
EXTT7=
EXTT8=
EXTT9=
EXTT10=
EXTT11=
EXTT12=
EXTT13=
EXTT14=
EXTT15=
EXTT16=
EXTT17=
EXTT18=
EXTT19=
PLAYORDER=
